HIERARCHY
ROOT Hips
{
	OFFSET	0.000000	0.000000	0.000000
	CHANNELS 6 Xposition Yposition Zposition Zrotation Xrotation Yrotation
	JOINT LeftHip
	{
		OFFSET	12.830505	0	0
		CHANNELS 3 Zrotation Xrotation Yrotation
		JOINT LeftKnee
		{
			OFFSET	0.620834	-39.957502	-1.919341
			CHANNELS 3 Zrotation Xrotation Yrotation
			JOINT LeftAnkle
			{
				OFFSET	-0.413890	-44.704761	-3.870325
				CHANNELS 3 Zrotation Xrotation Yrotation
				JOINT LeftAnkleEnd
				{
					OFFSET	0.164738	-8.918194	-6.555130
					CHANNELS 3 Zrotation Xrotation Yrotation
					End Site
					{
						OFFSET	-0.604053	0.000000	21.044330
					}
				}
			}
		}
	}
	JOINT RightHip
	{
		OFFSET	-12.830505	-7.049846	-1.643436
		CHANNELS 3 Zrotation Xrotation Yrotation
		JOINT RightKnee
		{
			OFFSET	-0.620834	-39.957502	-1.919341
			CHANNELS 3 Zrotation Xrotation Yrotation
			JOINT RightAnkle
			{
				OFFSET	0.413890	-44.704761	-3.870325
				CHANNELS 3 Zrotation Xrotation Yrotation
				JOINT RightAnkleEnd
				{
					OFFSET	-0.164738	-8.918194	-6.555130
					CHANNELS 3 Zrotation Xrotation Yrotation
					End Site
					{
						OFFSET	0.604053	0.000000	21.044330
					}
				}
			}
		}
	}
	JOINT Waist
	{
		OFFSET	0.000000	12.498171	1.820647
		CHANNELS 3 Zrotation Xrotation Yrotation
		JOINT Chest
		{
			OFFSET	0.000000	7.620000	0.000000
			CHANNELS 3 Zrotation Xrotation Yrotation
			JOINT LeftCollar
				`{
				OFFSET	9.167800	29.136339	-5.551221
				CHANNELS 3 Zrotation Xrotation Yrotation
				JOINT LeftShoulder
				{
					OFFSET	12.133453	-3.880866	1.461963
					CHANNELS 3 Zrotation Xrotation Yrotation
					JOINT LeftElbow
					{
						OFFSET	2.507115	-31.664910	-1.069404
						CHANNELS 3 Zrotation Xrotation Yrotation
						JOINT LeftWrist
						{
							OFFSET	4.116172	-24.512624	5.009439
							CHANNELS 3 Zrotation Xrotation Yrotation
							End Site
							{
								OFFSET	-0.213136	-10.931856	2.182134
							}
						}
					}
				}
			}
			JOINT RightCollar
			{
				OFFSET	-9.167800	29.136339	-5.551221
				CHANNELS 3 Zrotation Xrotation Yrotation
				JOINT RightShoulder
				{
					OFFSET	-12.133453	-3.880866	1.461963
					CHANNELS 3 Zrotation Xrotation Yrotation
					JOINT RightElbow
					{
						OFFSET	-2.507115	-31.664910	-1.069404
						CHANNELS 3 Zrotation Xrotation Yrotation
						JOINT RightWrist
						{
							OFFSET	-4.116172	-24.512624	5.009439
							CHANNELS 3 Zrotation Xrotation Yrotation
							End Site
							{
								OFFSET	0.213136	-10.931856	2.182134
							}
						}
					}
				}
			}
			JOINT Neck
			{
				OFFSET	0.000000	32.926275	-3.635654
				CHANNELS 3 Zrotation Xrotation Yrotation
				JOINT Head
				{
					OFFSET	0.000000	12.481178	4.646143
					CHANNELS 3 Zrotation Xrotation Yrotation
					End Site
					{
						OFFSET	0.000000	17.715205	-2.222063
					}
				}
			}
		}
	}
}
MOTION
Frames:     6
Frame Time: 0.016667
-0.022322	100.645580	-0.024914	0.091876	0.293012	-0.019161	-0.203508	-0.508121	-0.030226	0.111617	0.215136	0.047918	-0.000000	-0.000000	-0.000004	0.	0.	0.	-0.058026	-0.380328	0.404344	-0.033136	0.087521	-0.385430	0.000001	0.000001	0.000002	0.	0.	0.	-0.091779	-0.293042	0.018689	0.003580	-0.091069	0.115395	-0.102393	0.137820	0.007118	0.042591	-0.149082	0.095440	0.714321	1.666266	1.872122	-0.125906	-0.563487	1.064893	0.054654	-0.024191	0.061438	0.098031	0.047496	-0.562280	-0.038167	-0.060795	-0.234153	-0.000136	-0.057809	0.159547	-0.446460	-0.097076	-0.138092	0.689860	-0.459382	0.464652	
-0.022322	100.645580	-0.024914	0.091876	0.293012	-0.019161	-0.202425	-0.504935	-0.030949	0.112593	0.214404	0.048753	-0.002064	-0.002451	-0.000103	0.	0.	0.	-0.058026	-0.380328	0.404344	-0.033136	0.087521	-0.385430	0.000001	0.000001	0.000002	0.	0.	0.	-0.091779	-0.293042	0.018689	-0.000159	-0.106733	0.114624	-0.110579	0.159111	0.022726	0.061005	-0.117267	0.156733	0.752957	1.741862	1.927190	-0.147373	-0.595765	1.091118	0.054216	-0.011578	0.066864	0.101330	0.051282	-0.556525	-0.023468	-0.059099	-0.244361	-0.013285	-0.060359	0.155741	-0.471886	-0.086712	-0.124223	0.700612	-0.439484	0.471442	
-0.022322	100.645580	-0.024914	0.091876	0.293012	-0.019161	-0.202425	-0.504935	-0.030949	0.121730	0.225266	0.049226	-0.011210	-0.013305	-0.000613	0.	0.	0.	-0.058026	-0.380328	0.404344	-0.033136	0.087521	-0.385430	0.000001	0.000001	0.000002	0.	0.	0.	-0.091779	-0.293042	0.018689	-0.003702	-0.121590	0.113893	-0.118821	0.179510	0.038123	0.071688	-0.118511	0.204031	0.796124	1.843852	2.014848	-0.166501	-0.624466	1.126927	0.055760	0.001804	0.069825	0.103638	0.054193	-0.512086	-0.009954	-0.059624	-0.301134	-0.024067	-0.061595	0.148464	-0.503256	-0.077482	-0.107660	0.724041	-0.424872	0.467945	
-0.022322	100.645580	-0.024914	0.091876	0.293012	-0.019161	-0.202425	-0.504935	-0.030949	0.132601	0.238193	0.049797	-0.022092	-0.026222	-0.001232	0.	0.	0.	-0.058026	-0.380328	0.404344	-0.033136	0.087521	-0.385430	0.000001	0.000001	0.000002	0.	0.	0.	-0.091779	-0.293042	0.018689	-0.007438	-0.137245	0.113123	-0.127184	0.200861	0.053965	0.080899	-0.129109	0.238489	0.842055	1.959499	2.111995	-0.180294	-0.649719	1.203068	0.059526	0.017452	0.070572	0.112898	0.055814	-0.494560	-0.004952	-0.061098	-0.333839	-0.035120	-0.062190	0.145281	-0.513015	-0.064297	-0.100745	0.737518	-0.422476	0.461882	
-0.024208	100.645716	-0.039210	0.088082	0.280805	-0.018354	-0.198643	-0.492725	-0.031691	0.149364	0.258128	0.050655	-0.038873	-0.046142	-0.002170	0.	0.	0.	-0.047161	-0.384990	0.480183	-0.039958	0.104495	-0.461987	0.000001	0.000001	0.000002	0.	0.	0.	-0.087993	-0.280833	0.017923	-0.013139	-0.161135	0.111945	-0.140554	0.233717	0.078922	0.102999	-0.119380	0.259348	0.902430	2.106947	2.249617	-0.212938	-0.703686	1.360466	0.065274	0.041331	0.071710	0.108594	0.059206	-0.445471	0.021766	-0.062099	-0.393031	-0.055479	-0.064884	0.143581	-0.514248	-0.035833	-0.094733	0.716886	-0.404999	0.487220	
-0.024621	100.645832	-0.041237	0.088082	0.280805	-0.018354	-0.198643	-0.492725	-0.031691	0.159154	0.269767	0.051153	-0.048674	-0.057772	-0.002724	0.	0.	0.	-0.045905	-0.387673	0.493996	-0.041166	0.107198	-0.475791	0.000001	0.000001	0.000002	0.	0.	0.	-0.087993	-0.280833	0.017923	-0.013955	-0.164556	0.111778	-0.153517	0.243610	0.096226	0.123791	-0.092246	0.275278	0.934953	2.176365	2.306703	-0.228969	-0.716658	1.444791	0.066596	0.043002	0.076142	0.106833	0.061965	-0.435382	0.033222	-0.061344	-0.407221	-0.065664	-0.066725	0.143417	-0.514529	-0.004698	-0.086796	0.706398	-0.359969	0.508099	
